Description
Bedroom 2012 BRRip 720p HD Bengali Movie EngSub.mkv
Subtitle in English.





Bedroom synopsis (Story)
The film is about Joy, Deb and Ananda.While Joy is a struggling actor and conducts workshops, Ananda works in an I.T company and Deb is an actor. Joy's wife who is a fashion photographer runs the entire show as Joy hardly earns any money,Ananda's wife is a housewife and Deb is forever willing to sleep around with whoever catches his eye (in fact a new girl every day). However barring Deb , the rest of the couples don't share any intimacy at all... 

Reviews 
ΓÇÿAamraΓÇÖ was probably the first Bengali *** comedy which was released 5 years back.Mainak is back with his latest film called Bedroom. Now if one thinks that all you are going to see is a lot action in the bedroom and a lot of steamy scenes, you are absolutely mistaken. Bedroom is not what you think it is all about. There is literally nothing of the sort here. Bedroom is actually a urban take on realistic relationships which especially exist in our urban story. There are traces of the film being a *** comedy in the earlier stages, but it slowly fades away and it soon becomes ...

Cast :
Abir Chatterjee, Rahul, Rudranil Ghosh, Paoli, Parno Mittra, Tanusree Chakraborty, Ushasie Chakraborty, Vikram Chatterjee, Biswanath Basu and Anubrata Basu, among others

General
Format : Matroska
File size : 2.14 GiB
Duration : 2h 7mn
Video #1
ID : 1
Format : AVC
Format/Info : Advanced Video Codec
Format profile : High@L3.1
Format settings, CABAC : Yes
Format settings, ReFrames : 5 frames
Codec ID : V_MPEG4/ISO/AVC
Duration : 2h 7mn
Bit rate : 1 649 Kbps
Width : 1 280 pixels
Height : 544 pixels
Display aspect ratio : 2.35:1
Frame rate : 29.970 fps
Color space : YUV
Chroma subsampling : 4:2:0
Bit depth : 8 bits
Scan type : Progressive
Bits/(Pixel*Frame) : 0.079
Stream size : 1.42 GiB (67%)

Audio #2
ID : 2
Format : DTS
Format/Info : Digital Theater Systems
Codec ID : A_DTS
Duration : 2h 7mn
Bit rate mode : Constant
Bit rate : 755 Kbps
Channel(s) : 6 channels
Channel positions : Front: L C R, Side: L R, LFE
Sampling rate : 48.0 KHz
Bit depth : 24 bits
Compression mode : Lossy
Stream size : 686 MiB (31%)
Text #3
ID : 3
Format : VobSub
Muxing mode : zlib
Codec ID : S_VOBSUB
Codec ID/Info : The same su**itle format used on DVDs
Language : English

Screen Shot: 
https://kastatic.com/i2/u/867472/lC5NmI2A4y.png 
https://kastatic.com/i2/u/867472/uYhGJoMld9.png 
https://kastatic.com/i2/u/867472/ElJzkQV56n.png 
https://kastatic.com/i2/u/867472/7whU9Kf08M.png 
https://kastatic.com/i2/u/867472/toGkH3Mx7Z.png 
https://kastatic.com/i2/u/867472/831X9BzWFA.png